<?xml version="1.0" encoding="utf-8"?>
<!-- Generator: Adobe Illustrator 24.0.2, SVG Export Plug-In . SVG Version: 6.00 Build 0)  -->
<svg version="1.1" id="レイヤー_1" xmlns="http://www.w3.org/2000/svg" xmlns:xlink="http://www.w3.org/1999/xlink" x="0px"
	 y="0px" viewBox="0 0 288 560" style="enable-background:new 0 0 288 560;" xml:space="preserve">
<style type="text/css">
	.st0{fill:#97C031;}
	.st1{opacity:0.57;fill:#E8D32F;}
	.st2{opacity:0.79;fill:#8DCFE3;}
	.st3{fill:#FFFFFF;}
	.st4{fill:#E8D32F;stroke:#FFFFFF;stroke-width:1.5945;stroke-miterlimit:10;}
	.st5{fill:#E8D32F;}
	.st6{opacity:0.8;fill:#8DCFE3;}
	.st7{opacity:0.8;fill:#F6BA79;}
	.st8{opacity:0.8;fill:#E8D32F;}
	.st9{opacity:0.8;fill:#4EBBB1;}
	.st10{opacity:0.8;fill:#97C031;}
	.st11{fill:#DFCC38;}
	.st12{fill:#F6BA79;}
	.st13{fill:#5F2515;}
	.st14{opacity:0.7;fill:#97C031;}
	.st15{opacity:0.7;fill:#DFCC38;}
	.st16{opacity:0.5;fill:#FFFFFF;}
	.st17{opacity:0.9;fill:#FFFFFF;}
</style>
<polyline class="st0" points="-146.82,326.63 -146.9,458.59 -420.27,458.77 -420.19,326.81 -239.31,326.69 "/>
<polygon class="st1" points="184.4,119.29 149.57,120.12 148.42,69.59 183.26,68.77 "/>
<polygon class="st0" points="223.06,118.08 188.22,118.91 187.43,83.93 222.26,83.1 "/>
<polygon class="st0" points="217.71,221.13 182.88,221.96 182.08,186.97 216.92,186.14 "/>
<polygon class="st2" points="222.23,79.5 187.39,80.33 186.24,29.8 221.08,28.98 "/>
<text transform="matrix(0.9956 -0.0237 0.0227 0.9997 436.8726 159.6525)" class="st3" style="font-family:'VDL-LineGR-Regular-90ms-RKSJ-H'; font-size:21.3146px;">扉</text>
<ellipse transform="matrix(0.1048 -0.9945 0.9945 0.1048 139.0863 263.0901)" class="st3" cx="215.68" cy="54.29" rx="2.66" ry="2.65"/>
<line class="st4" x1="161.3" y1="81.82" x2="161.56" y2="81.82"/>
<ellipse transform="matrix(0.9978 -0.0666 0.0666 0.9978 -6.5381 11.1886)" class="st3" cx="164.65" cy="103.72" rx="1.84" ry="3.54"/>
<polygon class="st3" points="171.65,76.29 172.83,128.04 151.89,119.44 151.89,119.63 150.51,119.66 149.36,68.66 150.73,68.63 "/>
<polygon class="st0" points="159.94,65.43 148.33,65.71 147.54,30.73 159.15,30.45 "/>
<polygon class="st0" points="183.17,64.88 171.56,65.15 171.29,53.47 182.9,53.19 "/>
<polygon class="st0" points="171.56,65.15 159.94,65.43 159.41,42.08 171.03,41.8 "/>
<polygon class="st3" points="153.29,74.94 147.97,75.07 147.83,69.05 153.16,68.92 "/>
<polyline class="st5" points="149.45,120.71 170.39,129.31 169.21,77.56 148.29,69.9 "/>
<ellipse transform="matrix(0.9945 -0.105 0.105 0.9945 -9.8551 17.8171)" class="st3" cx="164.29" cy="102.51" rx="2.08" ry="3.33"/>
<polygon class="st6" points="144.77,85.24 145.56,120.22 97.71,121.36 96.91,86.38 "/>
<polygon class="st7" points="224.6,13.34 236.21,13.06 237.71,79.14 226.1,79.41 "/>
<polygon class="st8" points="221.06,25.09 131.9,27.21 131.64,15.55 220.79,13.43 "/>
<polygon class="st9" points="144.68,81.24 133.07,81.52 131.92,31.1 143.53,30.82 "/>
<polygon class="st8" points="261.02,82.47 261.49,103.19 226.66,104.02 226.19,83.3 "/>
<polygon class="st10" points="78.22,125.82 145.81,124.21 146.25,143.58 78.66,145.19 "/>
<polygon class="st7" points="76.79,62.49 115.93,61.56 116.39,81.91 77.25,82.85 "/>
<polygon class="st9" points="36.15,-33.83 79.87,-34.87 80.47,-8.33 36.76,-7.28 "/>
<polygon class="st9" points="242.05,201.04 285.77,200 286.37,226.54 242.66,227.59 "/>
<polygon class="st10" points="94.48,-20.93 126.85,-21.7 128.65,57.37 96.27,58.14 "/>
<polygon class="st9" points="172.29,185.62 172.55,197.28 98.88,199.04 98.61,187.38 "/>
<polygon class="st9" points="277.83,140.45 227.51,141.65 226.75,107.91 277.06,106.71 "/>
<polygon class="st6" points="236.12,9.17 217.32,9.62 216.56,-23.83 235.36,-24.28 "/>
<polygon class="st9" points="18.36,123.24 16.31,32.51 72.2,31.18 74.25,121.91 "/>
<polygon class="st9" points="263.71,497.59 200.62,497.56 200.61,472.82 263.7,472.85 "/>
<polygon class="st8" points="91.08,3 91.62,26.83 38.41,28.1 37.87,4.26 "/>
<polygon class="st9" points="181.17,-22.99 181.44,-11.33 130.96,-10.13 130.7,-21.79 "/>
<polygon class="st6" points="276.98,102.82 265.36,103.1 264.21,52.41 275.82,52.14 "/>
<polygon class="st10" points="241.25,16.08 299.31,14.7 299.93,41.87 241.87,43.25 "/>
<polygon class="st7" points="94.5,204.19 63.03,204.94 61.77,149.59 93.24,148.84 "/>
<polygon class="st8" points="54.03,216.02 6.54,217.15 4.64,133.61 52.14,132.48 "/>
<polygon class="st6" points="223.91,180.4 135.36,182.51 134.57,147.85 223.12,145.75 "/>
<polygon class="st7" points="-438.85,130.92 -163.31,130.92 -164.29,87.96 -437.71,84.53 "/>
<polygon class="st6" points="277.92,144.34 278.39,165.06 243.55,165.89 243.08,145.16 "/>
<polygon class="st10" points="258.73,171.69 259.12,188.47 229.98,189.16 229.59,172.39 "/>
<polygon class="st10" points="28.65,14.7 5.74,14.69 5.72,-25.11 28.63,-25.1 "/>
<polygon class="st7" points="188.8,142.57 188.36,122.91 223.19,122.08 223.64,141.74 "/>
<polygon class="st11" points="-44.89,337.72 -183.19,337.61 -183.29,255.17 -44.99,255.28 "/>
<path class="st12" d="M471.16,415.24l19.67-80.63L471.16,415.24z"/>
<line class="st12" x1="455.38" y1="382.17" x2="474.99" y2="302.1"/>
<path class="st13" d="M171.24,207.4"/>
<polygon class="st1" points="185.41,371.4 150.57,372.23 149.43,321.7 184.26,320.87 "/>
<polygon class="st0" points="224.12,370.48 189.28,371.31 188.49,336.33 223.32,335.5 "/>
<polygon class="st2" points="223.23,331.61 188.4,332.44 187.25,281.91 222.09,281.08 "/>
<text transform="matrix(0.9956 -0.0237 0.0227 0.9997 364.2739 69.1672)" class="st3" style="font-family:'VDL-LineGR-Regular-90ms-RKSJ-H'; font-size:21.3146px;">扉</text>
<ellipse transform="matrix(0.1048 -0.9945 0.9945 0.1048 -110.7308 489.7741)" class="st3" cx="216.69" cy="306.39" rx="2.66" ry="2.65"/>
<line class="st4" x1="162.3" y1="333.93" x2="162.57" y2="333.92"/>
<ellipse transform="matrix(0.9978 -0.0666 0.0666 0.9978 -23.3158 11.8147)" class="st3" cx="165.65" cy="355.82" rx="1.84" ry="3.54"/>
<polygon class="st3" points="172.66,328.39 173.83,380.15 152.89,371.54 152.9,371.73 151.52,371.77 150.36,320.77 151.74,320.73 
	"/>
<polygon class="st0" points="160.95,317.54 149.34,317.81 148.54,282.83 160.16,282.56 "/>
<polygon class="st0" points="184.17,316.98 172.56,317.26 172.3,305.58 183.91,305.3 "/>
<polygon class="st0" points="172.56,317.26 160.95,317.54 160.42,294.18 172.03,293.91 "/>
<polygon class="st3" points="154.3,327.05 148.97,327.17 148.84,321.16 154.16,321.03 "/>
<polyline class="st5" points="150.45,372.81 171.39,381.42 170.22,329.66 149.3,322 "/>
<ellipse transform="matrix(0.9945 -0.105 0.105 0.9945 -36.3212 19.3165)" class="st3" cx="165.29" cy="354.61" rx="2.08" ry="3.33"/>
<polygon class="st6" points="145.78,337.34 146.57,372.32 98.71,373.46 97.92,338.48 "/>
<polygon class="st7" points="225.6,265.44 237.22,265.17 238.72,331.24 227.1,331.52 "/>
<polygon class="st8" points="222.06,277.19 132.91,279.32 132.64,267.65 221.8,265.53 "/>
<polygon class="st9" points="145.69,333.35 134.07,333.62 132.93,283.2 144.54,282.93 "/>
<polygon class="st8" points="262.03,334.58 262.5,355.3 227.66,356.13 227.19,335.41 "/>
<polygon class="st10" points="79.23,377.92 146.81,376.32 147.25,395.69 79.67,397.29 "/>
<polygon class="st7" points="77.79,314.6 116.94,313.66 117.4,334.02 78.26,334.95 "/>
<polygon class="st9" points="37.16,218.28 80.87,217.23 81.48,243.78 37.76,244.82 "/>
<polygon class="st10" points="95.48,231.18 127.86,230.41 129.65,309.47 97.28,310.24 "/>
<polygon class="st9" points="173.29,437.73 173.56,449.39 99.88,451.14 99.62,439.48 "/>
<polygon class="st9" points="278.84,392.56 228.52,393.75 227.75,360.01 278.07,358.82 "/>
<polygon class="st6" points="237.13,261.28 218.33,261.73 217.57,228.27 236.37,227.82 "/>
<polygon class="st1" points="185.41,652.12 150.57,652.95 149.43,602.42 184.26,601.59 "/>
<polygon class="st0" points="224.06,650.91 189.23,651.74 188.43,616.76 223.27,615.93 "/>
<polygon class="st0" points="218.72,753.95 183.88,754.78 183.09,719.8 217.92,718.97 "/>
<polygon class="st2" points="223.23,612.33 188.4,613.16 187.25,562.63 222.09,561.8 "/>
<ellipse transform="matrix(0.1048 -0.9945 0.9945 0.1048 -389.9053 741.0722)" class="st3" cx="216.69" cy="587.11" rx="2.66" ry="2.65"/>
<line class="st4" x1="162.3" y1="614.65" x2="162.57" y2="614.65"/>
<ellipse transform="matrix(0.9978 -0.0666 0.0666 0.9978 -42.0002 12.4371)" class="st3" cx="165.65" cy="636.54" rx="1.84" ry="3.54"/>
<polygon class="st3" points="172.66,609.12 173.83,660.87 152.89,652.26 152.9,652.45 151.52,652.49 150.36,601.49 151.74,601.46 
	"/>
<polygon class="st0" points="160.95,598.26 149.34,598.53 148.54,563.55 160.16,563.28 "/>
<polygon class="st0" points="184.17,597.71 172.56,597.98 172.3,586.3 183.91,586.02 "/>
<polygon class="st0" points="172.56,597.98 160.95,598.26 160.42,574.9 172.03,574.63 "/>
<polygon class="st3" points="154.3,607.77 148.97,607.89 148.84,601.88 154.16,601.75 "/>
<polyline class="st5" points="150.45,653.53 171.39,662.14 170.22,610.38 149.3,602.72 "/>
<ellipse transform="matrix(0.9945 -0.105 0.105 0.9945 -65.7973 20.8683)" class="st3" cx="165.29" cy="635.33" rx="2.08" ry="3.33"/>
<polygon class="st6" points="145.78,618.06 146.57,653.05 98.71,654.18 97.92,619.2 "/>
<polygon class="st7" points="225.6,546.16 237.22,545.89 238.72,611.96 227.1,612.24 "/>
<polygon class="st8" points="222.06,557.91 132.91,560.04 132.64,548.37 221.8,546.25 "/>
<polygon class="st9" points="145.69,614.07 134.07,614.34 132.93,563.92 144.54,563.65 "/>
<polygon class="st8" points="262.03,615.3 262.5,636.02 227.66,636.85 227.19,616.13 "/>
<polygon class="st10" points="79.23,658.64 146.81,657.04 147.25,676.41 79.67,678.01 "/>
<polygon class="st7" points="77.79,595.32 116.94,594.39 117.4,614.74 78.26,615.67 "/>
<polygon class="st9" points="37.16,499 80.87,497.95 81.48,524.5 37.76,525.54 "/>
<polygon class="st9" points="243.06,733.87 286.77,732.83 287.38,759.37 243.66,760.41 "/>
<polygon class="st10" points="95.48,511.9 127.86,511.13 129.65,590.19 97.28,590.96 "/>
<polygon class="st9" points="173.29,718.45 173.56,730.11 99.88,731.86 99.62,720.2 "/>
<polygon class="st9" points="278.84,673.28 228.52,674.47 227.75,640.73 278.07,639.54 "/>
<polygon class="st6" points="237.13,542 218.33,542.45 217.57,508.99 236.37,508.55 "/>
<polygon class="st9" points="19.36,656.07 17.31,565.34 73.21,564.01 75.26,654.74 "/>
<polygon class="st8" points="92.09,535.83 92.63,559.66 39.42,560.93 38.88,537.09 "/>
<polygon class="st9" points="182.18,509.83 182.44,521.5 131.97,522.7 131.7,511.04 "/>
<polygon class="st6" points="277.98,635.65 266.37,635.93 265.22,585.24 276.83,584.96 "/>
<polygon class="st10" points="242.26,548.91 300.32,547.53 300.93,574.7 242.87,576.08 "/>
<polygon class="st7" points="95.51,737.02 64.04,737.77 62.78,682.41 94.25,681.66 "/>
<polygon class="st8" points="55.04,748.84 7.55,749.97 5.65,666.44 53.14,665.31 "/>
<polygon class="st6" points="224.92,713.23 136.37,715.33 135.58,680.68 224.13,678.58 "/>
<polygon class="st6" points="278.92,677.16 279.4,697.88 244.56,698.71 244.09,677.99 "/>
<polygon class="st10" points="259.74,704.52 260.12,721.3 230.98,721.99 230.6,705.21 "/>
<polygon class="st10" points="29.66,547.53 6.75,547.51 6.73,507.72 29.64,507.73 "/>
<polygon class="st7" points="189.81,675.39 189.36,655.74 224.2,654.91 224.65,674.57 "/>
<path class="st13" d="M172.25,740.23"/>
<polygon class="st9" points="38.17,751.1 81.88,750.06 82.48,776.61 38.77,777.65 "/>
<polygon class="st6" points="238.13,794.11 219.33,794.55 218.57,761.1 237.38,760.65 "/>
<polygon class="st9" points="19.36,375.35 17.31,284.62 73.21,283.29 75.26,374.02 "/>
<polygon class="st8" points="92.09,255.11 92.63,278.94 39.42,280.21 38.88,256.37 "/>
<polygon class="st8" points="233.34,444.5 233.88,468.33 180.67,469.6 180.13,445.76 "/>
<polygon class="st9" points="182.18,229.11 182.44,240.77 131.97,241.98 131.7,230.31 "/>
<polygon class="st6" points="277.98,354.93 266.37,355.21 265.22,304.52 276.83,304.24 "/>
<polygon class="st10" points="242.26,268.19 300.32,266.8 300.93,293.98 242.87,295.36 "/>
<polygon class="st10" points="77.79,466.99 135.85,465.61 136.47,492.78 78.41,494.16 "/>
<polygon class="st7" points="95.51,456.3 64.04,457.05 62.78,401.69 94.25,400.94 "/>
<polygon class="st8" points="55.04,468.12 7.55,469.25 5.65,385.72 53.14,384.59 "/>
<polygon class="st6" points="224.92,432.51 136.37,434.61 135.58,399.96 224.13,397.85 "/>
<polygon class="st6" points="278.92,396.44 279.4,417.16 244.56,417.99 244.09,397.27 "/>
<polygon class="st10" points="259.74,423.8 260.12,440.58 230.98,441.27 230.6,424.49 "/>
<polygon class="st7" points="189.81,394.67 189.36,375.02 224.2,374.19 224.65,393.84 "/>
<path class="st13" d="M172.25,475.68"/>
<polyline class="st14" points="1214.1,107.11 1183.04,306.77 1596.56,371.66 1627.63,172 1354.01,129.06 "/>
<polygon class="st1" points="1026.92,65.76 1079.83,72.62 1089.69,-4.14 1036.77,-11 "/>
<polygon class="st0" points="968.12,58.15 1021.04,65 1027.86,11.86 974.95,5.01 "/>
<polygon class="st2" points="975.7,-0.9 1028.62,5.95 1038.48,-70.81 985.56,-77.66 "/>
<text transform="matrix(-0.9876 -0.1279 -0.1274 0.9919 1004.7199 55.1176)" class="st3" style="font-family:'VDL-LineGR-Regular-90ms-RKSJ-H'; font-size:32.637px;">扉</text>
<ellipse class="st3" cx="989.72" cy="-38.25" rx="4.06" ry="4.08"/>
<line class="st4" x1="1068.12" y1="12.41" x2="1067.72" y2="12.36"/>
<ellipse transform="matrix(0.1708 -0.9853 0.9853 0.1708 834.0242 1081.4301)" class="st3" cx="1059.5" cy="45.21" rx="5.42" ry="2.81"/>
<polygon class="st3" points="1053.24,2.32 1043.14,80.94 1076.41,71.2 1076.37,71.49 1078.46,71.76 1088.41,-5.72 1086.32,-5.99 "/>
<polygon class="st0" points="1072.81,-12.33 1090.45,-10.05 1097.27,-63.19 1079.63,-65.48 "/>
<polygon class="st0" points="1037.53,-16.9 1055.17,-14.62 1057.45,-32.37 1039.81,-34.65 "/>
<polygon class="st0" points="1055.17,-14.62 1072.81,-12.33 1077.36,-47.81 1059.73,-50.1 "/>
<polygon class="st3" points="1081.41,3.21 1089.5,4.26 1090.67,-4.88 1082.58,-5.92 "/>
<polyline class="st5" points="1079.92,73.52 1046.65,83.27 1056.75,4.64 1089.83,-3.66 "/>
<ellipse transform="matrix(0.2087 -0.978 0.978 0.2087 796.5482 1071.2706)" class="st3" cx="1060.24" cy="43.43" rx="5.09" ry="3.19"/>
<polygon class="st6" points="1092.74,20.26 1085.91,73.4 1158.61,82.82 1165.43,29.68 "/>
<polygon class="st7" points="982.71,-102.04 965.08,-104.32 952.19,-3.94 969.83,-1.66 "/>
<polygon class="st8" points="986.22,-83.58 1121.65,-66.04 1123.92,-83.75 988.49,-101.29 "/>
<polygon class="st9" points="1093.51,14.19 1111.15,16.48 1120.99,-60.12 1103.35,-62.4 "/>
<polygon class="st8" points="916.15,-2.61 912.11,28.87 965.03,35.72 969.07,4.25 "/>
<polygon class="st10" points="1187.56,92.74 1084.9,79.44 1081.12,108.87 1183.78,122.16 "/>
<polygon class="st7" points="1199.91,-3.47 1140.45,-11.17 1136.48,19.76 1195.94,27.46 "/>
<polygon class="st9" points="1277.24,-143.62 1210.84,-152.22 1205.66,-111.9 1272.06,-103.29 "/>
<polygon class="st10" points="1186.36,-133.33 1137.18,-139.7 1121.76,-19.59 1170.94,-13.22 "/>
<polygon class="st9" points="1034.72,168.71 1032.45,186.43 1144.35,200.92 1146.63,183.2 "/>
<polygon class="st9" points="881.25,82.98 957.69,92.88 964.27,41.63 887.84,31.73 "/>
<polygon class="st6" points="965.83,-110.23 994.39,-106.53 1000.92,-157.35 972.36,-161.05 "/>
<polygon class="st9" points="1279.13,98.42 1296.82,-39.41 1211.91,-50.4 1194.23,87.43 "/>
<polygon class="st9" points="1193.67,-55.82 1213.24,-208.18 1142.72,-217.32 1123.15,-64.96 "/>
<polygon class="st8" points="1187.69,-96.35 1183.04,-60.14 1263.86,-49.68 1268.51,-85.88 "/>
<polygon class="st9" points="1054.67,-150.39 1052.4,-132.68 1129.07,-122.75 1131.34,-140.46 "/>
<polygon class="st6" points="888.59,25.82 906.23,28.11 916.12,-48.89 898.48,-51.18 "/>
<polygon class="st10" points="959.95,-110.99 871.76,-122.41 866.46,-81.13 954.65,-69.71 "/>
<polygon class="st7" points="1150.19,209.47 1198,215.66 1208.79,131.57 1160.99,125.38 "/>
<polygon class="st8" points="1209.92,233.97 1282.06,243.31 1298.35,116.41 1226.21,107.07 "/>
<polygon class="st6" points="956.95,152.47 1091.45,169.89 1098.21,117.25 963.71,99.83 "/>
<polygon class="st7" points="878.14,-142.44 1012.64,-125 1021.03,-190.27 886.52,-207.71 "/>
<polygon class="st6" points="880.5,88.89 876.45,120.37 929.37,127.22 933.41,95.74 "/>
<polygon class="st10" points="905.32,133.63 902.05,159.11 946.31,164.84 949.58,139.36 "/>
<polygon class="st7" points="1016.48,100.5 1020.31,70.64 967.4,63.79 963.57,93.64 "/>
<polygon class="st15" points="1337.84,103.84 1128.06,132.8 1145.07,257.88 1354.85,228.91 "/>
<path class="st12" d="M1040.4,302.35l-17.01-125.93L1040.4,302.35z"/>
<line class="st12" x1="873.36" y1="330.7" x2="856.35" y2="205.63"/>
<path class="st13" d="M1030.22,226.67"/>
<rect x="927.02" y="8.01" class="st3" width="17.1" height="17.1"/>
<g>
	<rect x="876.51" y="-20.72" class="st16" width="365.32" height="114.95"/>
	<text transform="matrix(0.9932 0 0 1 925.702 24.7871)"><tspan x="0" y="0" style="fill:#1EA0DC; font-family:'FontAwesome5Brands-Regular'; font-size:22.7088px;"> </tspan><tspan x="16.17" y="0" style="fill:#5F2527; font-family:'FontAwesome5Brands-Regular'; font-size:22.7088px;"> </tspan><tspan x="20.98" y="0" style="fill:#5F2527; font-family:'VDL-Logona-Regular-90ms-RKSJ-H'; font-size:22.7088px;">＠tusnodashinkan</tspan><tspan x="0" y="39.74" style="fill:#5F2527; font-family:'VDL-Logona-Regular-90ms-RKSJ-H'; font-size:22.7088px;">welcome-tus.grats.jp</tspan></text>
</g>
<text transform="matrix(1 0 0 1 877.7537 382.4509)"><tspan x="0" y="0" style="fill:#5F2527; font-family:'VDL-LineGR-Regular-90ms-RKSJ-H'; font-size:12px;">制作</tspan><tspan x="0" y="21" style="fill:#5F2527; font-family:'VDL-LineGR-Regular-90ms-RKSJ-H'; font-size:12px;">野田学生会</tspan><tspan x="0" y="42" style="fill:#5F2527; font-family:'VDL-LineGR-Regular-90ms-RKSJ-H'; font-size:12px;">202</tspan><tspan x="27.84" y="42" style="fill:#5F2527; font-family:'VDL-LineGR-Regular-90ms-RKSJ-H'; font-size:12px;">0</tspan><tspan x="38.02" y="42" style="fill:#5F2527; font-family:'VDL-LineGR-Regular-90ms-RKSJ-H'; font-size:12px;">年度野田地区新入生歓迎ガイダンス実行委員会</tspan></text>
<rect x="-398.24" y="13.26" class="st17" width="234.93" height="448.15"/>
<text transform="matrix(1 0 0 1 -329.5427 108.1927)" style="font-family:'KozGoPr6N-Regular-90ms-RKSJ-H'; font-size:12px;">info</text>
</svg>
