<?xml version="1.0" encoding="utf-8"?>
<!-- Generator: Adobe Illustrator 24.0.2, SVG Export Plug-In . SVG Version: 6.00 Build 0)  -->
<svg version="1.1" id="レイヤー_1" xmlns="http://www.w3.org/2000/svg" xmlns:xlink="http://www.w3.org/1999/xlink" x="0px"
	 y="0px" viewBox="0 0 141.73 283.46" style="enable-background:new 0 0 141.73 283.46;" xml:space="preserve">
<style type="text/css">
	.st0{opacity:0.57;fill:#E8D32F;}
	.st1{fill:#97C031;}
	.st2{opacity:0.79;fill:#8DCFE3;}
	.st3{fill:#FFFFFF;}
	.st4{fill:#E8D32F;stroke:#FFFFFF;stroke-width:1.5945;stroke-miterlimit:10;}
	.st5{fill:#E8D32F;}
	.st6{opacity:0.8;fill:#8DCFE3;}
	.st7{opacity:0.8;fill:#F6BA79;}
	.st8{opacity:0.8;fill:#E8D32F;}
	.st9{opacity:0.8;fill:#4EBBB1;}
	.st10{opacity:0.8;fill:#97C031;}
	.st11{fill:#5F2515;}
</style>
<polygon class="st0" points="91.23,63.65 72.52,64.09 71.9,36.94 90.62,36.5 "/>
<polygon class="st1" points="112,63 93.29,63.44 92.86,44.65 111.58,44.2 "/>
<polygon class="st1" points="109.13,118.36 90.41,118.8 89.99,100.01 108.7,99.56 "/>
<polygon class="st2" points="111.56,42.27 92.84,42.71 92.22,15.57 110.94,15.12 "/>
<ellipse transform="matrix(0.1048 -0.9945 0.9945 0.1048 68.1531 133.154)" class="st3" cx="108.04" cy="28.72" rx="1.43" ry="1.43"/>
<line class="st4" x1="78.82" y1="43.51" x2="78.96" y2="43.51"/>
<ellipse transform="matrix(0.9978 -0.0666 0.0666 0.9978 -3.5003 5.4886)" class="st3" cx="80.62" cy="55.28" rx="0.99" ry="1.9"/>
<polygon class="st3" points="84.38,40.54 85.01,68.35 73.76,63.72 73.77,63.82 73.03,63.84 72.41,36.44 73.14,36.42 "/>
<polygon class="st1" points="78.09,34.71 71.86,34.86 71.43,16.06 77.67,15.91 "/>
<polygon class="st1" points="90.57,34.41 84.33,34.56 84.19,28.28 90.43,28.13 "/>
<polygon class="st1" points="84.33,34.56 78.09,34.71 77.81,22.16 84.05,22.01 "/>
<polygon class="st3" points="74.52,39.82 71.66,39.88 71.59,36.65 74.45,36.58 "/>
<polyline class="st5" points="72.46,64.4 83.7,69.03 83.07,41.22 71.84,37.11 "/>
<ellipse transform="matrix(0.9945 -0.105 0.105 0.9945 -5.2912 8.747)" class="st3" cx="80.43" cy="54.63" rx="1.12" ry="1.79"/>
<polygon class="st6" points="69.94,45.35 70.37,64.14 44.66,64.75 44.23,45.96 "/>
<polygon class="st7" points="112.83,6.72 119.07,6.57 119.87,42.07 113.64,42.22 "/>
<polygon class="st8" points="110.93,13.03 63.03,14.17 62.89,7.91 110.79,6.77 "/>
<polygon class="st9" points="69.89,43.2 63.65,43.35 63.04,16.26 69.28,16.11 "/>
<polygon class="st8" points="132.4,43.86 132.65,54.99 113.94,55.44 113.68,44.31 "/>
<polygon class="st10" points="34.19,67.15 70.5,66.29 70.74,76.69 34.43,77.56 "/>
<polygon class="st7" points="33.42,33.13 54.45,32.63 54.7,43.56 33.67,44.06 "/>
<polygon class="st9" points="11.59,-18.62 35.07,-19.18 35.4,-4.92 11.91,-4.36 "/>
<polygon class="st9" points="122.21,107.57 145.69,107 146.02,121.27 122.53,121.83 "/>
<polygon class="st10" points="42.92,-11.69 60.31,-12.1 61.28,30.37 43.89,30.79 "/>
<polygon class="st9" points="84.73,99.28 84.87,105.55 45.29,106.49 45.14,100.22 "/>
<polygon class="st9" points="141.43,75.01 114.39,75.65 113.98,57.53 141.02,56.88 "/>
<polygon class="st6" points="119.02,4.48 108.92,4.72 108.51,-13.25 118.61,-13.49 "/>
<polygon class="st9" points="2.03,65.77 0.92,17.02 30.96,16.31 32.06,65.05 "/>
<polygon class="st9" points="133.85,266.89 99.95,266.87 99.94,253.58 133.84,253.59 "/>
<polygon class="st8" points="41.1,1.17 41.39,13.97 12.8,14.65 12.51,1.85 "/>
<polygon class="st9" points="89.5,-12.8 89.64,-6.53 62.52,-5.89 62.38,-12.15 "/>
<polygon class="st6" points="140.97,54.8 134.73,54.95 134.11,27.71 140.35,27.56 "/>
<polygon class="st10" points="121.78,8.19 152.97,7.45 153.3,22.05 122.11,22.79 "/>
<polygon class="st7" points="42.93,109.26 26.03,109.66 25.35,79.92 42.26,79.52 "/>
<polygon class="st8" points="21.19,115.61 -4.32,116.22 -5.34,71.34 20.17,70.73 "/>
<polygon class="st6" points="112.46,96.47 64.89,97.61 64.46,78.99 112.04,77.86 "/>
<polygon class="st6" points="141.48,77.1 141.73,88.23 123.01,88.68 122.76,77.54 "/>
<polygon class="st10" points="131.17,91.8 131.37,100.81 115.72,101.18 115.51,92.17 "/>
<polygon class="st10" points="7.56,7.45 -4.75,7.44 -4.76,-13.94 7.55,-13.93 "/>
<polygon class="st7" points="93.6,76.15 93.36,65.59 112.08,65.14 112.32,75.7 "/>
<path class="st11" d="M84.16,110.98"/>
<polygon class="st0" points="91.78,199.09 73.06,199.54 72.44,172.39 91.16,171.94 "/>
<polygon class="st1" points="112.57,198.6 93.86,199.04 93.43,180.25 112.14,179.8 "/>
<polygon class="st2" points="112.1,177.71 93.38,178.16 92.76,151.01 111.48,150.57 "/>
<ellipse transform="matrix(0.1048 -0.9945 0.9945 0.1048 -66.0629 254.9415)" class="st3" cx="108.58" cy="164.17" rx="1.43" ry="1.43"/>
<line class="st4" x1="79.36" y1="178.96" x2="79.5" y2="178.96"/>
<ellipse transform="matrix(0.9978 -0.0666 0.0666 0.9978 -12.5143 5.8249)" class="st3" cx="81.16" cy="190.72" rx="0.99" ry="1.9"/>
<polygon class="st3" points="84.92,175.99 85.56,203.79 74.31,199.17 74.31,199.27 73.57,199.29 72.95,171.89 73.69,171.87 "/>
<polygon class="st1" points="78.63,170.15 72.4,170.3 71.97,151.51 78.21,151.36 "/>
<polygon class="st1" points="91.11,169.86 84.87,170 84.73,163.73 90.97,163.58 "/>
<polygon class="st1" points="84.87,170 78.63,170.15 78.35,157.61 84.59,157.46 "/>
<polygon class="st3" points="75.06,175.26 72.2,175.33 72.13,172.1 74.99,172.03 "/>
<polyline class="st5" points="73,199.85 84.25,204.47 83.61,176.67 72.38,172.55 "/>
<ellipse transform="matrix(0.9945 -0.105 0.105 0.9945 -19.5103 9.5525)" class="st3" cx="80.97" cy="190.07" rx="1.12" ry="1.79"/>
<polygon class="st6" points="70.48,180.79 70.91,199.59 45.2,200.2 44.77,181.41 "/>
<polygon class="st7" points="113.37,142.16 119.61,142.02 120.42,177.52 114.18,177.67 "/>
<polygon class="st8" points="111.47,148.48 63.57,149.62 63.43,143.35 111.33,142.21 "/>
<polygon class="st9" points="70.43,178.65 64.2,178.8 63.58,151.71 69.82,151.56 "/>
<polygon class="st8" points="132.94,179.31 133.19,190.44 114.48,190.89 114.22,179.75 "/>
<polygon class="st10" points="34.73,202.6 71.04,201.73 71.28,212.14 34.97,213 "/>
<polygon class="st7" points="33.96,168.57 54.99,168.07 55.24,179.01 34.21,179.51 "/>
<polygon class="st9" points="12.13,116.83 35.61,116.26 35.94,130.53 12.45,131.09 "/>
<polygon class="st10" points="43.46,123.76 60.86,123.34 61.82,165.82 44.43,166.23 "/>
<polygon class="st9" points="85.27,234.73 85.41,240.99 45.83,241.93 45.68,235.67 "/>
<polygon class="st9" points="141.97,210.46 114.94,211.1 114.52,192.97 141.56,192.33 "/>
<polygon class="st6" points="119.56,139.93 109.46,140.17 109.05,122.19 119.15,121.95 "/>
<polygon class="st0" points="91.78,349.91 73.06,350.36 72.44,323.21 91.16,322.76 "/>
<polygon class="st1" points="112.54,349.26 93.83,349.71 93.4,330.91 112.12,330.47 "/>
<polygon class="st1" points="109.67,404.62 90.96,405.07 90.53,386.27 109.24,385.83 "/>
<polygon class="st2" points="112.1,328.53 93.38,328.98 92.76,301.83 111.48,301.39 "/>
<ellipse transform="matrix(0.1048 -0.9945 0.9945 0.1048 -216.0512 389.9531)" class="st3" cx="108.58" cy="314.99" rx="1.43" ry="1.43"/>
<line class="st4" x1="79.36" y1="329.78" x2="79.5" y2="329.78"/>
<ellipse transform="matrix(0.9978 -0.0666 0.0666 0.9978 -22.5526 6.1593)" class="st3" cx="81.16" cy="341.54" rx="0.99" ry="1.9"/>
<polygon class="st3" points="84.92,326.81 85.56,354.61 74.31,349.99 74.31,350.09 73.57,350.11 72.95,322.71 73.69,322.69 "/>
<polygon class="st1" points="78.63,320.97 72.4,321.12 71.97,302.33 78.21,302.18 "/>
<polygon class="st1" points="91.11,320.68 84.87,320.82 84.73,314.55 90.97,314.4 "/>
<polygon class="st1" points="84.87,320.82 78.63,320.97 78.35,308.42 84.59,308.28 "/>
<polygon class="st3" points="75.06,326.08 72.2,326.15 72.13,322.92 74.99,322.85 "/>
<polyline class="st5" points="73,350.67 84.25,355.29 83.61,327.49 72.38,323.37 "/>
<ellipse transform="matrix(0.9945 -0.105 0.105 0.9945 -35.3465 10.3863)" class="st3" cx="80.97" cy="340.89" rx="1.12" ry="1.79"/>
<polygon class="st6" points="70.48,331.61 70.91,350.41 45.2,351.02 44.77,332.22 "/>
<polygon class="st7" points="113.37,292.98 119.61,292.84 120.42,328.34 114.18,328.48 "/>
<polygon class="st8" points="111.47,299.3 63.57,300.44 63.43,294.17 111.33,293.03 "/>
<polygon class="st9" points="70.43,329.47 64.2,329.61 63.58,302.53 69.82,302.38 "/>
<polygon class="st8" points="132.94,330.13 133.19,341.26 114.48,341.7 114.22,330.57 "/>
<polygon class="st10" points="34.73,353.42 71.04,352.55 71.28,362.96 34.97,363.82 "/>
<polygon class="st7" points="33.96,319.39 54.99,318.89 55.24,329.83 34.21,330.33 "/>
<polygon class="st9" points="12.13,267.64 35.61,267.08 35.94,281.34 12.45,281.91 "/>
<polygon class="st9" points="122.75,393.83 146.23,393.27 146.56,407.53 123.07,408.09 "/>
<polygon class="st10" points="43.46,274.57 60.86,274.16 61.82,316.64 44.43,317.05 "/>
<polygon class="st9" points="85.27,385.55 85.41,391.81 45.83,392.75 45.68,386.49 "/>
<polygon class="st9" points="141.97,361.28 114.94,361.92 114.52,343.79 141.56,343.15 "/>
<polygon class="st6" points="119.56,290.75 109.46,290.99 109.05,273.01 119.15,272.77 "/>
<polygon class="st9" points="2.57,352.03 1.47,303.29 31.5,302.57 32.6,351.32 "/>
<polygon class="st8" points="41.64,287.43 41.93,300.24 13.34,300.92 13.05,288.11 "/>
<polygon class="st9" points="90.04,273.47 90.18,279.73 63.06,280.38 62.92,274.11 "/>
<polygon class="st6" points="141.51,341.06 135.27,341.21 134.65,313.98 140.89,313.83 "/>
<polygon class="st10" points="122.32,294.46 153.51,293.72 153.84,308.32 122.65,309.06 "/>
<polygon class="st7" points="43.47,395.52 26.57,395.92 25.89,366.19 42.8,365.78 "/>
<polygon class="st8" points="21.73,401.88 -3.78,402.48 -4.8,357.6 20.71,357 "/>
<polygon class="st6" points="113,382.74 65.43,383.87 65,365.25 112.58,364.12 "/>
<polygon class="st6" points="142.02,363.36 142.27,374.5 123.55,374.94 123.3,363.81 "/>
<polygon class="st10" points="131.71,378.06 131.92,387.08 116.26,387.45 116.06,378.43 "/>
<polygon class="st10" points="8.1,293.72 -4.21,293.71 -4.22,272.33 8.09,272.34 "/>
<polygon class="st7" points="94.14,362.41 93.9,351.85 112.62,351.41 112.86,361.97 "/>
<path class="st11" d="M84.7,397.25"/>
<polygon class="st9" points="12.67,403.09 36.15,402.53 36.48,416.79 12.99,417.35 "/>
<polygon class="st6" points="120.1,426.19 110,426.43 109.59,408.46 119.69,408.22 "/>
<polygon class="st9" points="2.57,201.21 1.47,152.47 31.5,151.75 32.6,200.5 "/>
<polygon class="st8" points="41.64,136.61 41.93,149.42 13.34,150.1 13.05,137.29 "/>
<polygon class="st8" points="117.53,238.36 117.82,251.17 89.23,251.85 88.94,239.04 "/>
<polygon class="st9" points="90.04,122.65 90.18,128.91 63.06,129.56 62.92,123.29 "/>
<polygon class="st6" points="141.51,190.24 135.27,190.39 134.65,163.16 140.89,163.01 "/>
<polygon class="st10" points="122.32,143.64 153.51,142.9 153.84,157.5 122.65,158.24 "/>
<polygon class="st10" points="33.96,250.45 65.15,249.7 65.48,264.3 34.29,265.05 "/>
<polygon class="st7" points="43.47,244.7 26.57,245.1 25.89,215.37 42.8,214.96 "/>
<polygon class="st8" points="21.73,251.06 -3.78,251.66 -4.8,206.78 20.71,206.18 "/>
<polygon class="st6" points="113,231.92 65.43,233.05 65,214.44 112.58,213.3 "/>
<polygon class="st6" points="142.02,212.55 142.27,223.68 123.55,224.12 123.3,212.99 "/>
<polygon class="st10" points="131.71,227.24 131.92,236.26 116.26,236.63 116.06,227.62 "/>
<polygon class="st7" points="94.14,211.6 93.9,201.04 112.62,200.59 112.86,211.15 "/>
<path class="st11" d="M84.7,255.12"/>
</svg>
