<?xml version="1.0" encoding="utf-8"?>
<!-- Generator: Adobe Illustrator 24.0.2, SVG Export Plug-In . SVG Version: 6.00 Build 0)  -->
<svg version="1.1" id="レイヤー_1" xmlns="http://www.w3.org/2000/svg" xmlns:xlink="http://www.w3.org/1999/xlink" x="0px"
	 y="0px" viewBox="0 0 476.03 590.16" style="enable-background:new 0 0 476.03 590.16;" xml:space="preserve">
<style type="text/css">
	.st0{display:none;}
	.st1{display:inline;fill:#FFFFFF;}
	.st2{display:none;fill:#FFFFFF;}
	.st3{fill:#FFFFFF;}
	.st4{fill:#F8EA94;}
	.st5{fill:#97C031;}
	.st6{opacity:0.57;fill:#FFFFFF;}
	.st7{fill:#8ED0E3;}
	.st8{fill:#E9D431;}
</style>
<text transform="matrix(1 0 0 1 73.6406 814.5817)"><tspan x="0" y="0" style="fill:#612615; font-family:'VDL-LineGR-Regular-90ms-RKSJ-H'; font-size:23.3364px;">開いた向こうに</tspan><tspan x="163.35" y="0" style="fill:#612615; font-family:'VDL-LineGR-Regular-90ms-RKSJ-H'; font-size:23.3364px; letter-spacing:-10;">、</tspan><tspan x="176.42" y="0" style="fill:#612615; font-family:'VDL-LineGR-Regular-90ms-RKSJ-H'; font-size:23.3364px;">見えるモノ</tspan><tspan x="293.11" y="0" style="fill:#612615; font-family:'VDL-LineGR-Regular-90ms-RKSJ-H'; font-size:23.3364px; letter-spacing:-11;">。</tspan></text>
<g class="st0">
	<polygon class="st1" points="179.29,279.89 179.29,478.52 99.38,443.6 99.38,444.34 94.08,444.34 94.08,248.6 99.38,248.6 	"/>
</g>
<rect x="88.17" y="249.95" class="st2" width="20.52" height="23.09"/>
<g>
	<rect x="34.99" y="239.63" class="st3" width="191.05" height="275.95"/>
	<polygon class="st3" points="61.2,239.63 162.21,279.18 162.21,515.58 226.76,515.58 226.76,239.63 	"/>
	<polygon class="st4" points="61.2,239.63 162.21,279.18 162.21,515.58 226.76,515.58 226.76,239.63 	"/>
	<rect x="247.98" y="324.54" class="st5" width="191.05" height="191.05"/>
	<g>
		<path class="st3" d="M415.04,437.31h-83.21c1.25,9.61-4.47,47.94-5.82,58.07c-0.11,1.05-0.7,1.51-1.86,1.51
			c-1.15-0.6-8.18,1.27-7.91-1.28c0,0,6.05-43.99,6.05-43.99v-38.29c-0.47-6.25,89.92-0.84,92.76-2.56
			c5.38-1.36,1.61,21.77,2.68,23.86C417.72,436.38,416.79,437.31,415.04,437.31z M419.11,402.74h-100.9
			c-2.83,0.28-1.23-5.08-1.63-6.52c-0.55-4.6,100.94-0.11,102.54-1.63C421.64,393.81,421.45,403.62,419.11,402.74z M408.06,418.1
			h-76.23v11.75h76.23V418.1z M371.75,469.08c-0.78,0.7-5.46,29.3-7.8,27.82c-12.38,0.82-7.97-1.23-6.17-10.36l-20.72,2.44
			c-2.45,0.19-1.04-4.45-1.4-5.7c-1.47-3.15,23.01-3.46,24.09-4.31l2.21-8.61h-20.95c-2.61,0.32-1.35-3.96-1.63-5.35
			c-1.35-3.43,22.2-0.9,23.28-1.63v-9.78c-1.19-0.74-25.09,1.8-23.86-1.63c0.25-1.41-0.89-5.69,1.63-5.47c0,0,22.23,0,22.23,0
			c0.39-1.45-1.17-6.92,1.63-6.63c1.51,0.47,8.13-1.34,7.8,1.75C371.81,442.78,372.64,468.65,371.75,469.08z M419.11,487.12h-22
			c-0.56,1.33,1.48,10.33-1.63,9.78c-1.41-0.54-8.18,1.31-7.91-1.51c0,0,0-53.77,0-53.77c-0.4-3.17,6.43-1.24,7.91-1.75
			c2.73-0.27,1.29,5.21,1.63,6.63h22c2.51-0.23,1.39,4.07,1.63,5.47c1.25,3.4-22.55,0.91-23.63,1.63v9.78
			c1.27,0.73,24.28-1.8,23.16,1.63c-0.24,1.46,0.91,5.58-1.75,5.35c0,0-21.41,0-21.41,0v9.54h22
			C421.54,479.3,421.54,487.72,419.11,487.12z"/>
	</g>
	<g>
		<rect x="247.98" y="26.84" class="st3" width="191.05" height="275.95"/>
		<rect x="247.98" y="26.84" class="st6" width="191.05" height="275.95"/>
	</g>
	<rect x="247.98" y="26.84" class="st7" width="191.05" height="275.95"/>
	<circle class="st3" cx="406.28" cy="164.3" r="14.54"/>
	<rect x="35.71" y="27.35" class="st5" width="63.68" height="191.05"/>
	<rect x="163.08" y="154.59" class="st5" width="63.68" height="63.81"/>
	<rect x="99.39" y="90.85" class="st5" width="63.68" height="127.55"/>
	
		<ellipse transform="matrix(0.9965 -0.0839 0.0839 0.9965 -34.9217 11.4316)" class="st3" cx="118.59" cy="421.33" rx="11.43" ry="18.16"/>
	<polyline class="st8" points="34.99,518.75 148.69,568.44 148.69,285.79 34.99,241.27 	"/>
	
		<ellipse transform="matrix(0.999 -0.0446 0.0446 0.999 -18.9738 5.7977)" class="st3" cx="120.4" cy="427.98" rx="10.08" ry="19.31"/>
	<polygon class="st3" points="148.69,568.44 148.69,515.58 162.21,515.58 162.21,562.75 	"/>
</g>
</svg>
