<?xml version="1.0" encoding="utf-8"?>
<!-- Generator: Adobe Illustrator 24.0.2, SVG Export Plug-In . SVG Version: 6.00 Build 0)  -->
<svg version="1.1" id="レイヤー_1" xmlns="http://www.w3.org/2000/svg" xmlns:xlink="http://www.w3.org/1999/xlink" x="0px"
	 y="0px" viewBox="0 0 453.54 453.54" style="enable-background:new 0 0 453.54 453.54;" xml:space="preserve">
<style type="text/css">
	.st0{fill:#FFFFFF;}
	.st1{fill:#F8EA94;}
	.st2{fill:#97C031;}
	.st3{opacity:0.57;fill:#FFFFFF;}
	.st4{fill:#8ED0E3;}
	.st5{fill:#E9D431;stroke:#FFFFFF;stroke-width:4;stroke-miterlimit:10;}
	.st6{fill:#E9D431;}
</style>
<polygon class="st0" points="103.34,186.04 174.26,213.81 174.26,379.79 219.57,379.79 219.57,186.04 "/>
<polygon class="st1" points="103.34,186.04 174.26,213.81 174.26,379.79 219.57,379.79 219.57,186.04 "/>
<rect x="234.48" y="245.66" class="st2" width="134.13" height="134.13"/>
<g>
	<path class="st0" d="M351.77,324.83h-58.42c0.94,6.76-3.18,33.65-4.09,40.77c-0.08,0.74-0.49,1.06-1.31,1.06
		c-0.81-0.42-5.74,0.89-5.56-0.9c0,0,4.25-30.89,4.25-30.89V308c-0.59-4.38,63.21-0.59,65.12-1.8c1.23,0,1.88,0.57,1.88,1.8v14.95
		C353.65,324.18,352.99,324.83,351.77,324.83z M354.63,300.56h-70.84c-1.99,0.2-0.86-3.57-1.14-4.58
		c-0.46-3.24,70.92-0.07,71.99-1.15c1.94-0.18,0.88,3.58,1.14,4.58C355.77,300.16,355.36,300.56,354.63,300.56z M346.86,311.35
		h-53.52v8.25h53.52V311.35z M321.37,347.14c-0.54,0.49-3.83,20.57-5.47,19.53c-8.92,0.44-5.55-0.53-4.33-7.27l-14.54,1.72
		c-1.72,0.13-0.73-3.13-0.98-4c-1.08-2.19,16.18-2.44,16.91-3.02l1.55-6.05H299.8c-1.83,0.22-0.95-2.78-1.14-3.76
		c0-0.82,0.33-1.14,1.14-1.14H315v-6.86h-15.61c-1.78,0.21-0.97-2.79-1.14-3.76c0-0.82,0.41-1.23,1.14-1.23H315
		c0.27-1.02-0.82-4.86,1.14-4.66c1.06,0.33,5.71-0.94,5.47,1.23C321.47,328.48,321.94,347.11,321.37,347.14z M354.63,359.8h-15.44
		c-0.39,0.93,1.04,7.25-1.14,6.86c-0.99-0.38-5.74,0.92-5.56-1.06c0,0,0-37.75,0-37.75c-0.28-2.23,4.51-0.87,5.56-1.23
		c1.92-0.19,0.9,3.66,1.14,4.66h15.44c1.77-0.16,0.98,2.86,1.14,3.84c0.98,2.37-15.88,0.66-16.59,1.14v6.86h15.04
		c1.9-0.23,1.04,2.74,1.23,3.76c0.81,2.37-15.47,0.66-16.26,1.14v6.7h15.44c1.82-0.16,0.95,2.94,1.14,3.92
		C355.77,359.4,355.36,359.8,354.63,359.8z"/>
</g>
<g>
	<rect x="234.48" y="36.64" class="st0" width="134.13" height="193.75"/>
	<rect x="234.48" y="36.64" class="st3" width="134.13" height="193.75"/>
</g>
<rect x="234.48" y="36.64" class="st4" width="134.13" height="193.75"/>
<circle class="st0" cx="345.62" cy="133.15" r="10.21"/>
<line class="st5" x1="133.92" y1="234.09" x2="134.94" y2="234.09"/>
<ellipse transform="matrix(0.999 -0.0446 0.0446 0.999 -14.0555 6.7815)" class="st0" cx="144.9" cy="318.29" rx="7.08" ry="13.56"/>
<polygon class="st2" points="174.86,126.34 174.86,81.59 130.15,81.59 130.15,37.01 85.44,37.01 85.44,171.14 130.15,171.14 
	174.86,171.14 219.57,171.14 219.57,126.34 "/>
<polyline class="st6" points="84.93,382.02 164.76,416.9 164.76,218.46 84.93,187.19 "/>
<ellipse transform="matrix(0.9965 -0.0839 0.0839 0.9965 -25.7988 13.1523)" class="st0" cx="143.63" cy="313.62" rx="8.02" ry="12.75"/>
<text transform="matrix(1 0 0 1 278.9393 634.1189)"><tspan x="0" y="0" style="fill:#612615; font-family:'VDL-LineGR-Regular-90ms-RKSJ-H'; font-size:23.3364px;">開いた向こうに</tspan><tspan x="163.35" y="0" style="fill:#612615; font-family:'VDL-LineGR-Regular-90ms-RKSJ-H'; font-size:23.3364px; letter-spacing:-10;">、</tspan><tspan x="176.42" y="0" style="fill:#612615; font-family:'VDL-LineGR-Regular-90ms-RKSJ-H'; font-size:23.3364px;">見えるモノ</tspan><tspan x="293.11" y="0" style="fill:#612615; font-family:'VDL-LineGR-Regular-90ms-RKSJ-H'; font-size:23.3364px; letter-spacing:-11;">。</tspan></text>
</svg>
