<?xml version="1.0" encoding="utf-8"?>
<!-- Generator: Adobe Illustrator 23.0.6, SVG Export Plug-In . SVG Version: 6.00 Build 0)  -->
<svg version="1.1" xmlns="http://www.w3.org/2000/svg" xmlns:xlink="http://www.w3.org/1999/xlink" x="0px" y="0px"
	 width="1499.9px" height="1307.2px" viewBox="0 0 1499.9 1307.2" style="enable-background:new 0 0 1499.9 1307.2;"
	 xml:space="preserve">
<style type="text/css">
	.st0{fill:none;stroke:#FFFFFF;stroke-width:3;stroke-miterlimit:10;}
	.st1{fill:#595757;}
	.st2{fill:#FFFFFF;}
	.st3{fill:#1D2C58;}
	.st4{fill:#FAED00;}
	.st5{fill:#231815;}
	.建物{fill:#F1E8C8;stroke:#D7BB6D;stroke-width:0.25;stroke-miterlimit:10;}
	.建物名{fill:#231815;}
	.芝生{fill:#C9E3C3;}
	.建物名_x0020_5{fill:#231815;stroke:#FFFFFF;stroke-linejoin:round;stroke-miterlimit:10;}
	.建物名_x0020_10{fill:#231815;stroke:#FFFFFF;stroke-linejoin:round;stroke-miterlimit:10;}
	.st6{fill:#C8C9CA;}
	.st7{fill:#CAE4C4;}
	.st8{font-family:'GothicBBBPr6N-Medium-83pv-RKSJ-H';}
	.st9{font-size:12.4657px;}
	.st10{fill:none;stroke:#FFFFFF;stroke-linejoin:round;stroke-miterlimit:10;}
	.st11{letter-spacing:-6;}
	.st12{fill:#D34B2F;}
	.st13{fill:#1F865A;}
	.st14{fill:#D27690;}
	.st15{fill:#8EAC28;}
	.st16{fill:#C02E43;}
	.st17{fill:#DBB526;}
	.st18{letter-spacing:3;}
</style>
<symbol  id="ゴミステーション" viewBox="-15 -15 30 30">
	<g>
		<circle class="st0" cx="0" cy="0" r="13.5"/>
		<circle class="st1" cx="0" cy="0" r="13.5"/>
	</g>
	<g>
		<path class="st2" d="M6.9,5.6C7,5.5,7.1,5.3,7.1,5.1V4.7c0-0.1,0-0.2-0.1-0.3C6.9,4.3,6.8,4.3,6.7,4.3H6.1V-6.9
			c0-0.4-0.1-0.8-0.4-1.1C5.3-8.4,5-8.5,4.6-8.5h-9.1c-0.4,0-0.8,0.2-1.1,0.5c-0.3,0.3-0.4,0.7-0.4,1.1V4.3h-0.6
			c-0.1,0-0.2,0-0.3,0.1C-7,4.5-7.1,4.6-7.1,4.7v0.4c0,0.2,0.1,0.4,0.2,0.6c0.1,0.2,0.3,0.2,0.5,0.2H-4l1.1,1.9
			C-2.8,8-2.6,8.2-2.3,8.3c0.2,0.1,0.5,0.2,0.8,0.2h3.2c0.3,0,0.5-0.1,0.8-0.2C2.6,8.2,2.8,8,2.9,7.8L4,5.9h2.3
			C6.5,5.9,6.7,5.8,6.9,5.6z M-4.6,4.3v-11c0,0,0-0.1,0.1-0.1c0,0,0.1-0.1,0.1-0.1h8.7c0,0,0.1,0,0.1,0.1c0,0,0.1,0.1,0.1,0.1v11
			H-4.6z M-1-4.9C-1-5-1-5.1-1.1-5.2c-0.1-0.1-0.2-0.1-0.3-0.1h-0.8c-0.1,0-0.2,0-0.3,0.1C-2.5-5.1-2.5-5-2.5-4.9v7.2
			c0,0.1,0,0.2,0.1,0.3c0.1,0.1,0.2,0.1,0.3,0.1h0.8c0.1,0,0.2,0,0.3-0.1C-1,2.5-1,2.4-1,2.3V-4.9z M2.2,5.9l-0.6,1
			c0,0.1-0.1,0.1-0.2,0.1h-3c-0.1,0-0.1,0-0.2-0.1l-0.6-1H2.2z M1.4,2.7c-0.1,0-0.2,0-0.3-0.1C1,2.5,1,2.4,1,2.3v-7.2
			C1-5,1-5.1,1.1-5.2c0.1-0.1,0.2-0.1,0.3-0.1h0.8c0.1,0,0.2,0,0.3,0.1C2.5-5.1,2.5-5,2.5-4.9v7.2c0,0.1,0,0.2-0.1,0.3
			C2.3,2.6,2.3,2.7,2.2,2.7H1.4z"/>
	</g>
</symbol>
<symbol  id="喫煙所" viewBox="-15 -15 30 30">
	<g>
		<circle class="st0" cx="0" cy="0" r="13.5"/>
		<circle class="st3" cx="0" cy="0" r="13.5"/>
	</g>
	<path class="st2" d="M3-1.6c0.1,0,0.2,0,0.3-0.1C3.3-1.8,3.4-1.9,3.4-2v-3.6c0-0.1,0-0.2-0.1-0.3C3.2-6,3.1-6,3-6H-7.2
		c-0.4,0-0.7,0.1-0.9,0.4c-0.2,0.3-0.4,0.6-0.4,0.9v1.8c0,0.4,0.1,0.7,0.4,0.9c0.2,0.3,0.5,0.4,0.9,0.4H3z M2.1-4.7v1.8h-4.6v-1.8
		H2.1z M4.4,4.2c0.5-0.3,0.8-0.8,1.1-1.3c0.3-0.5,0.4-1.1,0.4-1.7V0.4c0-0.1,0-0.1-0.1-0.2c0,0-0.1-0.1-0.1-0.1H4.4
		c-0.1,0-0.1,0-0.1,0.1c0,0-0.1,0.1-0.1,0.2v0.8C4.2,1.6,4.1,2,4,2.3C3.8,2.6,3.6,2.9,3.3,3.1C2.8,3.5,2.4,3.9,2.1,4.5
		S1.7,5.5,1.7,6.1v1.8c0,0.1,0,0.1,0.1,0.2c0,0,0.1,0.1,0.1,0.1h1.3c0.1,0,0.1,0,0.1-0.1c0,0,0.1-0.1,0.1-0.2V6.2
		c0-0.4,0.1-0.8,0.3-1.1C3.8,4.8,4.1,4.5,4.4,4.2z M6.2,5.8c0.7-0.5,1.3-1.2,1.7-2s0.6-1.7,0.6-2.6V0.4c0-0.1,0-0.1-0.1-0.2
		S8.3,0.2,8.2,0.2H7c-0.1,0-0.1,0-0.1,0.1S6.8,0.3,6.8,0.4v0.8c0,0.7-0.2,1.4-0.5,2S5.5,4.3,5,4.7C4.7,4.8,4.6,5.1,4.4,5.3
		C4.3,5.6,4.2,5.9,4.2,6.2v1.7c0,0.1,0,0.1,0.1,0.2c0,0,0.1,0.1,0.1,0.1h1.3c0.1,0,0.1,0,0.1-0.1c0,0,0.1-0.1,0.1-0.2V6.2
		C5.9,6,6,5.9,6.2,5.8z M5.7-1.6c0.1,0,0.1,0,0.1-0.1c0,0,0.1-0.1,0.1-0.2v-4c0-0.1,0-0.1-0.1-0.2C5.8-6,5.8-6,5.7-6H4.4
		C4.4-6,4.3-6,4.3-6c0,0-0.1,0.1-0.1,0.2v4c0,0.1,0,0.1,0.1,0.2c0,0,0.1,0.1,0.1,0.1H5.7z M8.2-1.6c0.1,0,0.1,0,0.1-0.1
		c0,0,0.1-0.1,0.1-0.2v-4c0-0.1,0-0.1-0.1-0.2C8.3-6,8.3-6,8.2-6H7C6.9-6,6.9-6,6.8-6c0,0-0.1,0.1-0.1,0.2v4c0,0.1,0,0.1,0.1,0.2
		c0,0,0.1,0.1,0.1,0.1H8.2z"/>
</symbol>
<symbol  id="案内所" viewBox="-15 -15 30 30">
	<g>
		<circle class="st0" cx="0" cy="0" r="13.5"/>
		<circle class="st4" cx="0" cy="0" r="13.5"/>
	</g>
	<g>
		<path class="st5" d="M-1.8-5.6v4.8h-0.6c-0.2,0-0.3,0.1-0.4,0.2S-3-0.3-3-0.1v1.6C-3,1.6-3,1.8-2.8,1.9s0.3,0.2,0.4,0.2h3.5
			c0.2,0,0.3-0.1,0.4-0.2s0.2-0.3,0.2-0.5v-7.1h0.6c0.2,0,0.3-0.1,0.4-0.2C3-5.9,3-6.1,3-6.3v-1.6C3-8,3-8.2,2.8-8.3
			C2.7-8.5,2.6-8.5,2.4-8.5h-4.8c-0.2,0-0.3,0.1-0.4,0.2C-3-8.2-3-8-3-7.9v1.6C-3-6.1-3-5.9-2.8-5.8c0.1,0.1,0.3,0.2,0.4,0.2H-1.8z
			 M-1.6,7.8c-0.4-0.5-0.7-1-0.7-1.7s0.2-1.2,0.7-1.7s1-0.7,1.6-0.7S1.2,4,1.6,4.4s0.7,1,0.7,1.7S2.1,7.4,1.6,7.8
			C1.2,8.3,0.6,8.5,0,8.5S-1.2,8.3-1.6,7.8z"/>
	</g>
</symbol>
<symbol  id="案内所とゴミステーション" viewBox="-60 -15 60 30">

		<use xlink:href="#案内所"  width="30" height="30" x="-15" y="-15" transform="matrix(1 0 0 1 -15 0)" style="overflow:visible;"/>

		<use xlink:href="#ゴミステーション"  width="30" height="30" x="-15" y="-15" transform="matrix(1 0 0 1 -45 0)" style="overflow:visible;"/>
</symbol>
<g id="道">
	<path class="st6" d="M1499.9,48.8L1120.9,0l-66.2,321.5l-184.9-41.4l-2.6,11.4l185.1,41.4l-88,427.6l-776.2-6.2l-4.4,0l-147.6,495
		h0l-16.2,54.5l59.2-0.3v0l829-4.7l-26.3-270l1-0.3l-1-3.1l119.1-35.4l-25.2-217.6l373.2-24.2L1499.9,48.8z M171,987.8v-87.3h233.5
		h8.6h93.6h8.6v-8.9v-28.3v-8.9v-85.5l329.6,2.6l23.4,240.5l-26,5l-0.2-10.1l0.4-17.1L171,987.8z M277.9,1167.8v-161.7l283.8,1.7
		l2.2,75.7l132.9,0.5l0.3,82.8L277.9,1167.8z M471.5,1189l-0.4,66.7l-88.3,0.5v-67.3L471.5,1189z M377.4,1188.9v67.3l-100.2,0v-67.4
		L377.4,1188.9z M581.2,1068.3l-1.3-60.4l243.5,1.6l1,58.8L581.2,1068.3z M261.6,1148.5l-1.4,107.8l-89.6,1.1l2.9-82.9l0.2-5.9
		l1.9-53.7l-3-0.1l1.2-109.4l87.2,0.7l1.1,129.3l-25.3,0.1l-0.5,13.2L261.6,1148.5z M506.7,863.2v28.3h-93.6v-28.3H506.7z
		 M413.1,854.3V768l93.6,0.7v85.6H413.1z M192.5,766.2l212,1.7v86.4v8.9v28.3H171h-7.6v8.9v87.3l-37-0.1L192.5,766.2z M55.9,1249.7
		l-0.1,0.4l-7.6-0.3l73-244.9l39.2,0.3l-0.7,109.1l-27.1-0.9l-1.7,48.8C68.1,1208.9,56.4,1248.1,55.9,1249.7z M159.7,1173.9
		l-2.9,83.5l-68.5,0.4l1-5.1c5-11.5,20.7-40.5,62.2-79L159.7,1173.9z M699.2,1288.3l-617.7,3.5l2.1-10.5l390.8,0.3l16.8-21.5
		l2.5-71.1l205.5,0.3V1288.3z M895.1,1287.2l-168.4,1l-0.5-121.1l-15.4-0.7l-0.4-82.1l133.4,2.4l-1-45.9l27.4-8.4L895.1,1287.2z
		 M988.1,981.6l-107.8,32l-23.6-242.2l107.2,0.9L988.1,981.6z M1130.2,13l355.6,45.8l-74,342.6l-345.6-77.3L1130.2,13z M977,760.7
		l-0.8,0l15.6-75.9l75.9-8.8l0.2-6.6l-74.4,6.6l4.5-21.8l24-4.8c4.4,10.2,14.3,17.5,26.1,17.9c16.3,0.6,30-12.2,30.5-28.5
		c0.6-16.3-12.2-30-28.5-30.5c-10.3-0.4-19.5,4.6-25.1,12.4l-19.5-3.6l57.9-281.6l345.5,77.3l-70,324.3L977,760.7z M1038.4,637.4
		c0.2-6.1,5.3-10.8,11.4-10.6c6.1,0.2,10.8,5.3,10.6,11.4c-0.2,6.1-5.3,10.8-11.4,10.6C1042.9,648.6,1038.2,643.5,1038.4,637.4z"/>
</g>
<g id="建物">

		<rect x="550.7" y="1196.1" transform="matrix(1 2.593743e-03 -2.593743e-03 1 3.2144 -1.5897)" class="建物" width="127.5" height="84.8"/>

		<rect x="497.5" y="1195.9" transform="matrix(1 2.593793e-03 -2.593793e-03 1 3.2016 -1.3458)" class="建物" width="46" height="75.5"/>

		<rect x="496.7" y="1093.9" transform="matrix(1 2.593738e-03 -2.593738e-03 1 2.9227 -1.5374)" class="建物" width="195" height="64.3"/>

		<rect x="991" y="813.8" transform="matrix(-0.9934 0.115 -0.115 -0.9934 2125.4685 1633.3275)" class="建物" width="49.2" height="128.3"/>

		<rect x="944.7" y="137.7" transform="matrix(0.9776 0.2105 -0.2105 0.9776 67.6576 -203.3868)" class="建物" width="89" height="156.9"/>

		<rect x="974.8" y="39.2" transform="matrix(0.9776 0.2105 -0.2105 0.9776 40.2975 -212.5562)" class="建物" width="87.6" height="87.6"/>
	<path class="建物" d="M1148.4,445.1l126.8,27.3l5.5-25.6l61.6,13.3l10.2-47.3l-284.7-61.3l-10.2,47.3l66.7,14.4l-27,129.7
		l-64.5-13.9l-7.9,36.6l64.7,13.9l-32.7,157l65.8,2.3l13.1-149.3l183.9,39.6l7.9-36.6l-188.5-40.6l5.5-62.7l2.8,2.8
		c-0.4,1.3-0.8,2.6-0.8,4c-0.3,7.7,5.7,14.1,13.4,14.4c7.7,0.3,14.1-5.7,14.4-13.4c0.3-7.7-5.7-14.1-13.4-14.4
		c-3.7-0.1-7,1.2-9.6,3.4l-6-6.4L1148.4,445.1z"/>

		<rect x="341.9" y="904.5" transform="matrix(1 2.593743e-03 -2.593743e-03 1 2.4482 -1.0794)" class="建物" width="150.9" height="77.7"/>

		<rect x="748.9" y="945.9" transform="matrix(1 2.593738e-03 -2.593738e-03 1 2.5068 -2.0705)" class="建物" width="101.2" height="39.2"/>

		<rect x="692.9" y="948.4" transform="matrix(1 2.593738e-03 -2.593738e-03 1 2.5027 -1.8489)" class="建物" width="42.5" height="31.2"/>
	<polygon class="建物" points="331.4,903.9 294.1,903.8 294,928.3 254.4,928.2 254.4,903.7 188.5,903.5 188.4,928.1 176.5,928.2
		176.4,982 331.1,982.2 331.2,935.4 331.3,935.4 	"/>

		<rect x="715.8" y="1094.5" transform="matrix(1 2.593753e-03 -2.593753e-03 1 2.9232 -1.8826)" class="建物" width="23" height="63.1"/>

		<rect x="776.6" y="1122.4" transform="matrix(1 2.593738e-03 -2.593738e-03 1 2.9638 -2.1105)" class="建物" width="77.2" height="38.4"/>
	<rect x="769.6" y="1168.7" class="建物" width="23.5" height="33.7"/>
	<rect x="731.5" y="1219.2" class="建物" width="19.5" height="47.4"/>

		<rect x="813.6" y="1182.3" transform="matrix(1 2.593738e-03 -2.593738e-03 1 3.1917 -2.1587)" class="建物" width="40.6" height="94.3"/>

		<rect x="418" y="832.2" transform="matrix(1 2.593738e-03 -2.593738e-03 1 2.2231 -1.1907)" class="建物" width="84.3" height="48.6"/>
	<g>
		<polygon class="st7" points="872.9,306.1 1037.6,346.6 947.9,745 813.8,747.2 		"/>
	</g>
	<g>
		<polygon class="芝生" points="555.8,1085 553.1,1016 486.8,1015.8 486.8,1015.8 288.5,1015.3 288.1,1154.6 486.4,1155.2
			486.6,1084.8 		"/>
	</g>
	<g>
		<polygon class="芝生" points="1061.8,987 1061.8,987 1056.8,947.5 998.3,954.9 1002.4,990.8 985.8,995.8 996.6,1080.9
			1072.5,1071.3 		"/>
	</g>
	<line class="建物" x1="298.8" y1="1216.9" x2="238.4" y2="1216.9"/>
	<polygon class="建物" points="604.5,1015.6 604.5,981.4 607.9,981.4 608,930.8 504.1,930.5 504,981.1 591.3,981.3 591.3,1015.5
		585,1015.5 584.9,1061.8 818.4,1062.4 818.5,1016.1 	"/>
	<rect x="522.6" y="804.5" class="建物" width="45" height="81.9"/>
	<rect x="570.9" y="875.8" class="建物" width="27.2" height="46.2"/>
	<polygon class="建物" points="600.8,874.9 600.8,924.5 619.2,924.5 619.2,978.7 637.5,978.7 637.5,924.5 637.5,921 637.5,874.9
		"/>
	<polygon class="建物" points="463,1202.7 463,1250.2 298.8,1250.2 298.8,1236 238.4,1236 238.4,1245.8 174.9,1245.8 174.9,1050
		238.4,1050 238.4,1216.9 298.8,1216.9 298.8,1202.7 	"/>
</g>
<g id="文字_x28_小_x29_">
	<g>
		<text transform="matrix(0.9998 0 0 1 595.8027 1231.6289)" class="建物名 st8 st9">講義棟</text>
	</g>
	<g>
		<text transform="matrix(0.9998 0 0 1 501.7256 1237.7129)" class="建物名 st8 st9">厚生棟</text>
	</g>
	<g>
		<text transform="matrix(0.9998 0 0 1 0.6011 1280.1592)" class="建物名 st8 st9">理工学正門</text>
	</g>
	<g>
		<text transform="matrix(0.9998 0 0 1 977.7393 759.168)" class="建物名 st8 st9">薬学正門</text>
	</g>
	<g>
		<text transform="matrix(0.9998 0 0 1 19.8472 1303.0117)" class="建物名 st8 st9">至運河駅</text>
	</g>
	<g>
		<text transform="matrix(0.9998 0 0 1 575.499 1129.6777)" class="建物名 st8 st9">図書館</text>
		<text transform="matrix(0.9998 0 0 1 575.499 1129.6777)" class="建物名 st8 st9">図書館</text>
	</g>
	<g>
		<text transform="matrix(0.9998 0 0 1 391.2993 1088.834)" class="建物名 st8 st9">中庭</text>
	</g>
	<g>
		<text transform="matrix(0.9998 0 0 1 885.4121 535.3623)" class="建物名 st8 st9">薬学エリア芝生</text>
	</g>
	<g>
		<text transform="matrix(0.9998 0 0 1 970.5283 219.7466)" class="建物名 st8 st9">体育館</text>
		<text transform="matrix(0.9998 0 0 1 970.5283 219.7466)" class="建物名 st8 st9">体育館</text>
	</g>
	<g>
		<text transform="matrix(0.9998 0 0 1 1009.9844 881.5752)" class="建物名 st8 st9">コミュニケーション棟</text>
		<text transform="matrix(0.9998 0 0 1 1009.9844 881.5752)" class="建物名 st8 st9">コミュニケーション棟</text>
	</g>
	<g>
		<text transform="matrix(0.9998 0 0 1 365.6704 1230.6074)" class="建物名 st8 st9">4号館</text>
		<text transform="matrix(0.9998 0 0 1 365.6704 1230.6074)" class="建物名 st8 st9">4号館</text>
	</g>
	<g>
		<text transform="matrix(0.9998 0 0 1 538.96 960.0596)" class="建物名 st8 st9">5号館</text>
	</g>
	<g>
		<text transform="matrix(0.9998 0 0 1 439.4346 860.1104)" class="建物名 st8 st9">12号館</text>
		<text transform="matrix(0.9998 0 0 1 439.4346 860.1104)" class="建物名 st8 st9">12号館</text>
	</g>
	<g>
		<text transform="matrix(0.9998 0 0 1 684.957 1041.7432)" class="建物名 st8 st9">6号館</text>
		<text transform="matrix(0.9998 0 0 1 684.957 1041.7432)" class="建物名 st8 st9">6号館</text>
	</g>
	<g>
		<text transform="matrix(0.9998 0 0 1 1119.8428 577.1953)" class="建物名 st8 st9">14号館</text>
		<text transform="matrix(0.9998 0 0 1 1119.8428 577.1953)" class="建物名 st8 st9">14号館</text>
	</g>
	<g>
		<text transform="matrix(0.9998 0 0 1 1173.7256 424.9629)" class="建物名 st8 st9">15号館</text>
		<text transform="matrix(0.9998 0 0 1 1173.7256 424.9629)" class="建物名 st8 st9">15号館</text>
	</g>
	<g>
		<text transform="matrix(0.9998 0 0 1 1066.1396 698.1504)" class="建物名 st8 st9">1311教室</text>
	</g>
	<g>
		<text transform="matrix(0.9998 0 0 1 237.3149 958.832)" class="建物名 st8 st9">3号館</text>
	</g>
	<g>
		<text transform="matrix(0.9998 0 0 1 400.7231 947.4746)" class="st10 st8 st9">7号館</text>
		<text transform="matrix(0.9998 0 0 1 400.7231 947.4746)" class="st5 st8 st9">7号館</text>
	</g>
	<g>
		<polygon class="st10" points="562.8,1251.7 565.1,1256.3 570.2,1257.1 566.5,1260.7 567.4,1265.8 562.8,1263.4 558.2,1265.8
			559.1,1260.7 555.4,1257.1 560.5,1256.3 		"/>
		<polygon class="st5" points="562.8,1251.7 565.1,1256.3 570.2,1257.1 566.5,1260.7 567.4,1265.8 562.8,1263.4 558.2,1265.8
			559.1,1260.7 555.4,1257.1 560.5,1256.3 		"/>
	</g>
	<g>
		<text transform="matrix(0.9998 0 0 1 573.4854 1263.9453)"><tspan x="0" y="0" class="建物名 st8 st9">K104教</tspan><tspan x="44.6" y="0" class="建物名 st8 st9 st11">室</tspan><tspan x="50.8" y="0" class="建物名 st8 st9">（本部</tspan><tspan x="88.2" y="0" class="建物名 st8 st9 st11">）</tspan></text>
	</g>
	<g>
		<text transform="matrix(0.9998 0 0 1 190.147 1157.7236)" class="建物名 st8 st9">2号館</text>
	</g>
</g>
<g id="ブース">
	<rect x="283.6" y="1252.8" class="st12" width="187.9" height="15.4"/>
	<rect x="283.6" y="1184.7" class="st13" width="169.6" height="15.4"/>

		<rect x="893.6" y="1009" transform="matrix(0.9583 -0.2858 0.2858 0.9583 -251.8102 311.3333)" class="st14" width="93.9" height="18.5"/>

		<rect x="979.8" y="549.1" transform="matrix(0.9822 0.188 -0.188 0.9822 137.9401 -174.2688)" class="st15" width="15.4" height="181.6"/>
	<rect x="248.4" y="1009.6" class="st16" width="16.9" height="193.8"/>
	<rect x="86.6" y="1256.7" class="st17" width="54.4" height="24.6"/>

		<rect x="47.3" y="1193.9" transform="matrix(0.6812 -0.7321 0.7321 0.6812 -848.6646 451.3196)" class="st17" width="93.2" height="12.3"/>
	<g>
		<text transform="matrix(0.9998 0 0 1 68.6958 1212.3154)"><tspan x="0" y="0" class="建物名 st8 st9 st18">G</tspan><tspan x="12.6" y="0" class="建物名 st8 st9">ブース</tspan></text>
	</g>
	<g>
		<text transform="matrix(0.9998 0 0 1 355.9302 1264.7852)"><tspan x="0" y="0" class="建物名 st8 st9 st18">S</tspan><tspan x="11.7" y="0" class="建物名 st8 st9">ブース</tspan></text>
	</g>
	<g>
		<text transform="matrix(0.9998 0 0 1 343.3203 1196.6543)"><tspan x="0" y="0" class="建物名 st8 st9 st18">C</tspan><tspan x="12.6" y="0" class="建物名 st8 st9">ブース</tspan></text>
	</g>
	<g>
		<text transform="matrix(0.9998 0 0 1 230.603 1110.835)"><tspan x="0" y="0" class="建物名 st8 st9 st18">W</tspan><tspan x="14.9" y="0" class="建物名 st8 st9">ブース</tspan></text>
	</g>
	<g>
		<text transform="matrix(0.9998 0 0 1 915.8311 1022.5117)"><tspan x="0" y="0" class="建物名 st8 st9 st18">E</tspan><tspan x="11.7" y="0" class="建物名 st8 st9">ブース</tspan></text>
	</g>
	<g>
		<text transform="matrix(0.9998 0 0 1 962.7988 644.2129)"><tspan x="0" y="0" class="建物名 st8 st9 st18">Y</tspan><tspan x="11.7" y="0" class="建物名 st8 st9">ブース</tspan></text>
	</g>
</g>
<g id="info">

		<use xlink:href="#案内所"  width="30" height="30" x="-15" y="-15" transform="matrix(1 0 0 -1 73.3003 1260.4921)" style="overflow:visible;"/>

		<use xlink:href="#ゴミステーション"  width="30" height="30" x="-15" y="-15" transform="matrix(1 0 0 -1 252.0069 1249.941)" style="overflow:visible;"/>

		<use xlink:href="#ゴミステーション"  width="30" height="30" x="-15" y="-15" transform="matrix(1 0 0 -1 462.9882 1196.6543)" style="overflow:visible;"/>

		<use xlink:href="#案内所とゴミステーション"  width="60" height="30" x="-60" y="-15" transform="matrix(1 0 0 -1 970.3525 755.1694)" style="overflow:visible;"/>

		<use xlink:href="#喫煙所"  width="30" height="30" x="-15" y="-15" transform="matrix(1 0 0 -1 678.5052 1196.6543)" style="overflow:visible;"/>
</g>
</svg>
